<svg width="47" height="38" viewBox="0 0 47 38" fill="none" xmlns="http://www.w3.org/2000/svg">
<path d="M3 16.5C1.61929 16.5 0.5 17.6193 0.5 19C0.5 20.3807 1.61929 21.5 3 21.5L3 16.5ZM45.78 20.7678C46.7563 19.7915 46.7563 18.2085 45.78 17.2322L29.8701 1.32233C28.8937 0.34602 27.3108 0.34602 26.3345 1.32233C25.3582 2.29864 25.3582 3.88155 26.3345 4.85786L40.4767 19L26.3345 33.1421C25.3582 34.1184 25.3582 35.7014 26.3345 36.6777C27.3108 37.654 28.8937 37.654 29.8701 36.6777L45.78 20.7678ZM3 21.5L44.0122 21.5V16.5L3 16.5L3 21.5Z" fill="white" fill-opacity="0.5"/>
</svg>
