<svg width="48" height="48" viewBox="0 0 48 48" fill="none" xmlns="http://www.w3.org/2000/svg">
<path d="M24.2168 7.10157C24.0849 7.10136 23.9525 7.11102 23.8203 7.12891C23.2917 7.20045 22.7703 7.41856 22.3398 7.80078C22.3398 7.80144 22.3398 7.80209 22.3398 7.80274L13.1172 16H6.5C4.0325 16 2 18.0325 2 20.5V27.5C2 29.9675 4.0325 32 6.5 32H13.1172L22.3398 40.1973C23.2006 40.9625 24.4215 41.0751 25.3457 40.6602C26.2699 40.2452 27 39.2574 27 38.1055V9.89453C27 8.74307 26.272 7.75498 25.3477 7.33985C25.001 7.18417 24.6124 7.10218 24.2168 7.10157ZM40.2188 7.98243C39.9587 7.99293 39.7059 8.07088 39.4852 8.20863C39.2644 8.34637 39.0833 8.53918 38.9595 8.7681C38.8358 8.99703 38.7738 9.2542 38.7795 9.51435C38.7852 9.7745 38.8585 10.0287 38.9922 10.252C44.3749 19.5371 44.3943 28.4639 38.9941 37.7461C38.8869 37.9166 38.815 38.1069 38.7829 38.3057C38.7507 38.5045 38.759 38.7077 38.807 38.9033C38.8551 39.0989 38.9421 39.2828 39.0628 39.444C39.1835 39.6052 39.3354 39.7405 39.5094 39.8418C39.6835 39.9431 39.8762 40.0083 40.076 40.0335C40.2758 40.0587 40.4787 40.0434 40.6724 39.9885C40.8662 39.9337 41.047 39.8404 41.2039 39.7141C41.3609 39.5879 41.4908 39.4314 41.5859 39.2539C47.4257 29.2161 47.4051 18.7829 41.5879 8.74805C41.4526 8.50652 41.253 8.30715 41.0114 8.17202C40.7697 8.03689 40.4954 7.97127 40.2188 7.98243ZM35.7559 11.9805C35.4956 11.9794 35.2396 12.046 35.0129 12.1739C34.7862 12.3017 34.5967 12.4862 34.4629 12.7095C34.3292 12.9327 34.2558 13.1868 34.2499 13.447C34.2441 13.7072 34.306 13.9644 34.4297 14.1934C37.889 20.8181 37.889 27.1819 34.4297 33.8066C34.3348 33.9816 34.2757 34.1738 34.2558 34.3718C34.236 34.5699 34.2557 34.7699 34.3139 34.9603C34.3721 35.1506 34.4676 35.3275 34.5948 35.4806C34.7221 35.6337 34.8785 35.7599 35.055 35.8519C35.2315 35.9439 35.4246 35.9999 35.623 36.0165C35.8213 36.0332 36.021 36.0102 36.2104 35.9489C36.3998 35.8876 36.5751 35.7893 36.7261 35.6595C36.877 35.5298 37.0007 35.3714 37.0898 35.1934C40.9306 27.8381 40.9306 20.1619 37.0898 12.8066C36.9654 12.5592 36.7749 12.3511 36.5395 12.2052C36.304 12.0594 36.0328 11.9816 35.7559 11.9805ZM31.1719 16.9961C30.9244 17.0067 30.6833 17.0784 30.4703 17.2048C30.2572 17.3312 30.0788 17.5085 29.9509 17.7207C29.8231 17.9328 29.7497 18.1734 29.7375 18.4209C29.7253 18.6683 29.7745 18.9149 29.8809 19.1387C31.3974 22.4571 31.3953 25.5598 29.873 28.8789C29.7896 29.0581 29.7423 29.2521 29.734 29.4496C29.7258 29.6471 29.7566 29.8443 29.8248 30.0299C29.893 30.2154 29.9972 30.3857 30.1314 30.5309C30.2656 30.676 30.4272 30.7932 30.6069 30.8757C30.7866 30.9582 30.9808 31.0044 31.1783 31.0116C31.3759 31.0188 31.5729 30.9868 31.7581 30.9176C31.9433 30.8484 32.113 30.7432 32.2574 30.6082C32.4018 30.4732 32.5181 30.311 32.5996 30.1309C34.4373 26.124 34.4408 21.8982 32.6094 17.8906C32.4877 17.6141 32.2854 17.3808 32.0289 17.2212C31.7724 17.0616 31.4737 16.9831 31.1719 16.9961Z" fill="#2A2A2A"/>
</svg>
