<svg width="30" height="70" viewBox="0 0 30 70" fill="none" xmlns="http://www.w3.org/2000/svg">
<path d="M17 2C17 0.89543 16.1046 -4.82823e-08 15 0C13.8954 4.82823e-08 13 0.895431 13 2L17 2ZM13.5858 69.4142C14.3668 70.1953 15.6332 70.1953 16.4142 69.4142L29.1421 56.6863C29.9232 55.9052 29.9232 54.6389 29.1421 53.8579C28.3611 53.0768 27.0948 53.0768 26.3137 53.8579L15 65.1716L3.68629 53.8579C2.90525 53.0768 1.63892 53.0768 0.857867 53.8579C0.0768181 54.6389 0.0768181 55.9052 0.857867 56.6863L13.5858 69.4142ZM13 2L13 68L17 68L17 2L13 2Z" fill="white"/>
</svg>
